<?xml version="1.0" encoding="UTF-8" standalone="no"?>
<svg
   xmlns:dc="http://purl.org/dc/elements/1.1/"
   xmlns:cc="http://creativecommons.org/ns#"
   xmlns:rdf="http://www.w3.org/1999/02/22-rdf-syntax-ns#"
   xmlns:svg="http://www.w3.org/2000/svg"
   xmlns="http://www.w3.org/2000/svg"
   xmlns:sodipodi="http://sodipodi.sourceforge.net/DTD/sodipodi-0.dtd"
   xmlns:inkscape="http://www.inkscape.org/namespaces/inkscape"
   version="1.1"
   id="svg2"
   xml:space="preserve"
   width="1333.3333"
   height="1066.6667"
   viewBox="0 0 1333.3333 1066.6667"
   sodipodi:docname="15022019-29.eps"><metadata
     id="metadata8"><rdf:RDF><cc:Work
         rdf:about=""><dc:format>image/svg+xml</dc:format><dc:type
           rdf:resource="http://purl.org/dc/dcmitype/StillImage" /></cc:Work></rdf:RDF></metadata><defs
     id="defs6" /><sodipodi:namedview
     pagecolor="#ffffff"
     bordercolor="#666666"
     borderopacity="1"
     objecttolerance="10"
     gridtolerance="10"
     guidetolerance="10"
     inkscape:pageopacity="0"
     inkscape:pageshadow="2"
     inkscape:window-width="640"
     inkscape:window-height="480"
     id="namedview4" /><g
     id="g10"
     inkscape:groupmode="layer"
     inkscape:label="ink_ext_XXXXXX"
     transform="matrix(1.3333333,0,0,-1.3333333,0,1066.6667)"><g
       id="g12"
       transform="scale(0.1)"><path
         d="M 6555.7,4393.7 C 6170,4003.63 5434.78,3363.23 5092.85,3081.1 c -35.47,-29.27 -66.68,-54.65 -92.85,-75.53 -26.18,20.88 -57.39,46.26 -92.86,75.53 -341.93,282.13 -1077.13,922.51 -1462.81,1312.58 -108.4,65.81 -200.37,122.17 -247.49,156.38 -22.09,-126.44 1230.84,-1226.6 1710.3,-1622.21 35.47,-29.28 66.68,-54.65 92.86,-75.53 26.17,20.88 57.38,46.25 92.85,75.53 479.45,395.61 1732.41,1495.77 1710.29,1622.21 -47.11,-34.21 -139.07,-90.56 -247.44,-156.36"
         style="fill:#e9202a;fill-opacity:1;fill-rule:nonzero;stroke:none"
         id="path14" /><path
         d="M 6555.7,3990.96 C 6170,3600.89 5434.78,2960.49 5092.85,2678.36 c -35.47,-29.28 -66.68,-54.66 -92.85,-75.54 -26.18,20.88 -57.39,46.26 -92.86,75.54 -341.93,282.13 -1077.13,922.52 -1462.81,1312.59 -108.4,65.8 -200.37,122.16 -247.49,156.36 -22.09,-126.43 1230.84,-1226.59 1710.3,-1622.2 35.47,-29.27 66.68,-54.65 92.86,-75.53 26.17,20.88 57.38,46.26 92.85,75.53 479.45,395.61 1732.41,1495.77 1710.29,1622.2 -47.11,-34.2 -139.07,-90.55 -247.44,-156.35"
         style="fill:#e9202a;fill-opacity:1;fill-rule:nonzero;stroke:none"
         id="path16" /><path
         d="m 6700.93,5007.89 c 335.12,206.38 309.74,382.11 308.73,542.53 0,0 -1149.19,-772.97 -1301.83,-913.74 -29.78,-27.45 -59.21,-56.79 -76.32,-93.49 -14.17,-30.38 -19.08,-64.12 -23.83,-97.29 -15.06,-105.04 -30.13,-210.07 -45.18,-315.11 -8.12,-56.61 -7,-123.08 -47.47,-163.48 -111.5,-111.27 -388.72,-330.72 -515.03,-429.38 -126.32,98.66 -403.54,318.11 -515.04,429.38 -40.47,40.4 -39.36,106.87 -47.46,163.48 -15.06,105.04 -30.13,210.07 -45.19,315.11 -4.76,33.17 -9.66,66.91 -23.83,97.29 -17.11,36.7 -46.54,66.04 -76.32,93.49 -152.64,140.77 -1301.84,913.74 -1301.84,913.74 -1,-160.42 -26.36,-336.15 308.74,-542.53 829.55,-510.89 817.11,-665.82 817.11,-665.82 -106.5,139.71 -762,499.82 -919.33,614.02 -22.09,-126.43 1230.84,-1226.59 1710.3,-1622.19 35.47,-29.28 66.68,-54.66 92.86,-75.54 26.17,20.88 57.38,46.26 92.85,75.54 479.45,395.6 1732.41,1495.76 1710.29,1622.19 -157.31,-114.2 -812.82,-474.31 -919.33,-614.02 0,0 -12.43,154.93 817.12,665.82"
         style="fill:#211d1d;fill-opacity:1;fill-rule:nonzero;stroke:none"
         id="path18" /><path
         d="m 4491.29,4460.09 45.19,-315.11 c 1.69,-11.76 3.03,-23.87 4.35,-36.11 0.68,-6.19 1.53,-13.9 2.56,-21.94 262.31,-223.57 445.11,-398.85 456.61,-412.69 11.49,13.84 194.29,189.12 456.59,412.68 1.03,8.03 1.88,15.73 2.56,21.91 1.33,12.26 2.67,24.39 4.36,36.15 l 45.19,315.11 c 2.69,18.83 5.78,40.09 10.96,62.32 -53.06,-40.12 -89.56,-67.08 -98.1,-71.75 -16.89,-9.24 -36.38,-17.97 -55.7,-14.62 -28.88,5 -46.22,34.11 -58.99,60.49 -42.04,86.75 -77.15,176.85 -104.91,269.14 -13.2,43.83 -20.67,100.62 16.76,127 13.84,9.77 152.95,57.77 205.68,81.59 20.22,9.16 15.69,38.85 -6.3,42.14 -61.4,9.21 -338.47,92.95 -418.1,98.58 -30.56,2.17 -61.17,0.76 -91.57,-5.93 -25.92,-5.71 -51.39,-15.99 -71.41,-33.2 -2.37,-2.03 -4.97,-3.74 -7.15,-5.98 -17.68,-18.04 -28.29,-41.69 -38.53,-64.78 -14.67,-33.13 -29.37,-66.25 -44.06,-99.38 -47.13,-106.26 -160.21,-459.77 -168.85,-455.05 -8.54,4.67 -45.04,31.63 -98.11,71.76 5.18,-22.22 8.27,-43.48 10.97,-62.33"
         style="fill:#e9202a;fill-opacity:1;fill-rule:nonzero;stroke:none"
         id="path20" /></g></g></svg>
